<?xml version="1.0" standalone="no"?>
<!DOCTYPE svg PUBLIC "-//W3C//DTD SVG 20010904//EN"
 "http://www.w3.org/TR/2001/REC-SVG-20010904/DTD/svg10.dtd">
<svg version="1.0" xmlns="http://www.w3.org/2000/svg"
 width="200.000000pt" height="200.000000pt" viewBox="0 0 200.000000 200.000000"
 preserveAspectRatio="xMidYMid meet">
<metadata>
Created by potrace 1.14, written by Peter Selinger 2001-2017
</metadata>
<g transform="translate(0.000000,200.000000) scale(0.100000,-0.100000)"
fill="#000000" stroke="none">
<path d="M351 1533 c-23 -11 -40 -31 -53 -60 -17 -40 -18 -70 -16 -517 l3
-474 25 -27 c51 -55 51 -55 557 -55 520 1 502 -2 542 70 20 36 21 52 21 296
l0 258 -65 -64 c-36 -35 -68 -74 -72 -85 -3 -11 -7 -90 -7 -175 l-1 -155 -427
0 c-377 -1 -427 1 -431 15 -3 13 -2 826 2 841 0 3 172 6 382 5 l380 0 72 72
72 72 -475 0 c-423 0 -479 -2 -509 -17z"/>
<path d="M1312 1388 c-127 -128 -196 -215 -271 -340 -42 -71 -55 -86 -73 -83
-11 3 -21 6 -22 7 -1 2 -26 32 -56 68 -108 127 -227 234 -257 228 -13 -2 -24
-28 -44 -101 l-26 -97 66 -57 c110 -96 142 -131 271 -295 65 -84 73 -86 112
-35 247 329 387 475 621 652 43 32 80 62 83 66 4 7 -260 99 -283 99 -5 0 -59
-51 -121 -112z"/>
</g>
</svg>
